<svg version="1.2" xmlns="http://www.w3.org/2000/svg" viewBox="0 0 548 259" width="548" height="259"><defs><linearGradient id="P" gradientUnits="userSpaceOnUse"/><linearGradient id="g1" x2="1" href="#P" gradientTransform="matrix(537.034,0,0,218,5.233,20)"><stop offset=".41" stop-color="#8f8e8e"/><stop offset=".8" stop-color="#727272"/></linearGradient></defs><style>.a{fill:url(#g1)}</style><path class="a" d="m133.5 20.5c-0.8 0.3 14.1 17 36.1 40.4 35.9 38 37.3 39.8 34.7 40.5-1.5 0.4-46.7 4.5-100.4 9-53.8 4.7-98.1 8.8-98.7 9.4-0.5 0.5 60 0.9 161.9 0.8l162.9-0.1c81.5-83.4 96.6-99.7 95.6-100-0.8-0.3-12.9-0.5-27-0.5-18.9 0-25.8 0.3-27.2 1.2-0.9 0.8-14.7 17.1-30.6 36.3l-28.9 35c-48.1 4.2-62.4 5.2-62.9 5-0.4-0.2-14.7-17.6-31.8-38.4l-31.1-38.2c-13.5 0.1-25.1-0.1-34.4-0.4-9.4-0.3-17.6-0.3-18.3 0zm43.4 166.5c-27.4 26.8-49.5 49-49.1 49.3 0.6 0.2 13.6 0.7 29.1 1 22.8 0.6 28.6 0.5 30-0.6 1-0.8 14.3-17.3 29.6-36.8 15.5-19.6 28.3-35.8 28.7-36.2 0.3-0.4 12.7-1.7 27.4-2.9 14.7-1.1 28.2-2.3 30-2.6 3.4-0.5 3.6-0.2 35.4 39.6l32.2 40.2c45-0.1 58.3-0.4 58.5-0.8 0.2-0.5-17.6-19.1-39.5-41.4-21.9-22.3-39.8-40.7-39.8-40.8 0.1-0.3 43.5-3.9 96.4-8.1 52.8-4.3 96.3-8 96.5-8.2 0.2-0.3-70.7-0.5-157.6-0.5h-158.1z"/></svg>
